<svg xmlns="http://www.w3.org/2000/svg" width="32" height="32" viewBox="0 0 32 32">
  <!-- Football/Soccer ball cursor -->
  <circle cx="16" cy="16" r="14" fill="#ffffff" stroke="#222" stroke-width="1.5"/>
  <!-- Pentagon patches -->
  <polygon points="16,6 20,10 18,15 14,15 12,10" fill="#222"/>
  <polygon points="24,14 26,19 23,23 19,21 20,16" fill="#222"/>
  <polygon points="8,14 12,16 13,21 9,23 6,19" fill="#222"/>
  <polygon points="11,24 14,21 18,21 21,24 19,28 13,28" fill="#222"/>
  <!-- Seam lines -->
  <line x1="16" y1="6" x2="16" y2="2" stroke="#ccc" stroke-width="0.5"/>
  <line x1="20" y1="10" x2="24" y2="8" stroke="#ccc" stroke-width="0.5"/>
  <line x1="12" y1="10" x2="8" y2="8" stroke="#ccc" stroke-width="0.5"/>
  <line x1="26" y1="19" x2="30" y2="19" stroke="#ccc" stroke-width="0.5"/>
  <line x1="6" y1="19" x2="2" y2="19" stroke="#ccc" stroke-width="0.5"/>
  <line x1="19" y1="28" x2="20" y2="30" stroke="#ccc" stroke-width="0.5"/>
  <line x1="13" y1="28" x2="12" y2="30" stroke="#ccc" stroke-width="0.5"/>
</svg>
